<?xml version="1.0" encoding="UTF-8" standalone="no"?>
<!-- Created with Inkscape (http://www.inkscape.org/) -->

<svg
   xmlns:dc="http://purl.org/dc/elements/1.1/"
   xmlns:cc="http://creativecommons.org/ns#"
   xmlns:rdf="http://www.w3.org/1999/02/22-rdf-syntax-ns#"
   xmlns:svg="http://www.w3.org/2000/svg"
   xmlns="http://www.w3.org/2000/svg"
   xmlns:sodipodi="http://sodipodi.sourceforge.net/DTD/sodipodi-0.dtd"
   xmlns:inkscape="http://www.inkscape.org/namespaces/inkscape"
   width="250"
   height="160"
   id="svg2"
   version="1.1"
   inkscape:version="0.48.3.1 r9886"
   sodipodi:docname="logo.svg">
  <defs
     id="defs4" />
  <sodipodi:namedview
     id="base"
     pagecolor="#000000"
     bordercolor="#666666"
     borderopacity="1.0"
     inkscape:pageopacity="0.30588235"
     inkscape:pageshadow="2"
     inkscape:zoom="2.8284272"
     inkscape:cx="117.2324"
     inkscape:cy="68.279041"
     inkscape:document-units="px"
     inkscape:current-layer="layer1"
     showgrid="false"
     inkscape:window-width="1920"
     inkscape:window-height="1056"
     inkscape:window-x="0"
     inkscape:window-y="24"
     inkscape:window-maximized="1" />
  <metadata
     id="metadata7">
    <rdf:RDF>
      <cc:Work
         rdf:about="">
        <dc:format>image/svg+xml</dc:format>
        <dc:type
           rdf:resource="http://purl.org/dc/dcmitype/StillImage" />
        <dc:title />
      </cc:Work>
    </rdf:RDF>
  </metadata>
  <g
     inkscape:label="Layer 1"
     inkscape:groupmode="layer"
     id="layer1"
     transform="translate(0,-892.36218)">
    <path
       style="fill:#000000;stroke:#000000;stroke-opacity:1"
       d="M 91.59375 1.75 L 46.03125 80.625 L 0.5 159.5 L 91.59375 159.5 L 182.65625 159.5 L 137.125 80.625 L 91.59375 1.75 z M 84.71875 73.46875 L 95.21875 73.46875 L 95.21875 82.09375 C 105.71402 82.105814 111.84375 87.999196 111.84375 97.21875 C 111.84375 103.19575 107.9095 107.05872 105.1875 108.34375 C 108.4395 109.85575 112.59375 113.2515 112.59375 120.4375 C 112.59375 130.4985 105.69975 135.9375 96.09375 135.9375 L 95.21875 135.9375 L 95.21875 144.625 L 84.71875 144.625 L 84.71875 135.9375 L 73.5625 135.9375 L 68.625 135.9375 L 68.625 126.5625 L 73.5625 126.5625 L 73.5625 91.46875 L 68.625 91.46875 L 68.625 82.09375 L 73.5625 82.09375 L 84.71875 82.09375 L 84.71875 73.46875 z M 84.0625 91.46875 L 84.0625 103.875 L 94.34375 103.875 C 98.80875 103.875 101.3125 101.36025 101.3125 97.65625 C 101.3125 93.94925 98.80875 91.46875 94.34375 91.46875 L 86.59375 91.46875 L 84.0625 91.46875 z M 84.0625 113.3125 L 84.0625 126.5625 L 86.59375 126.5625 L 95.03125 126.5625 C 99.79825 126.5625 102.0625 123.53825 102.0625 119.90625 C 102.0625 116.27625 99.79825 113.3125 95.03125 113.3125 L 84.0625 113.3125 z "
       transform="translate(0,892.36218)"
       id="path3898" />
    <path
       sodipodi:type="star"
       style="fill:#000000;stroke:#000000;stroke-opacity:1"
       id="path3898-3"
       sodipodi:sides="3"
       sodipodi:cx="-68.589355"
       sodipodi:cy="232.82486"
       sodipodi:r1="105.17248"
       sodipodi:r2="52.586239"
       sodipodi:arg1="0.52359878"
       sodipodi:arg2="1.5707963"
       inkscape:flatsided="false"
       inkscape:rounded="0"
       inkscape:randomized="0"
       d="m 22.492682,285.4111 -91.082036,0 -91.082036,0 45.54102,-78.87936 45.541015,-78.87936 45.541018,78.87936 z"
       transform="matrix(0.68154105,0,0,0.68154105,233.30201,857.50203)"
       inkscape:transform-center-y="-17.919844" />
  </g>
</svg>
